<svg width="20" height="20" viewBox="0 0 20 20" fill="none" xmlns="http://www.w3.org/2000/svg">
<path fill-rule="evenodd" clip-rule="evenodd" d="M3.53766 9.67645C3.53766 6.12427 6.41727 3.24466 9.96945 3.24466C13.5216 3.24466 16.4012 6.12427 16.4012 9.67645C16.4012 12.9563 13.9461 15.6628 10.7734 16.0585V11.2844H12.3814C12.8254 11.2844 13.1853 10.9245 13.1853 10.4804C13.1853 10.0364 12.8254 9.67645 12.3814 9.67645H10.7734V8.0685C10.7734 7.62448 11.1334 7.26453 11.5774 7.26453H11.9794C12.4234 7.26453 12.7833 6.90457 12.7833 6.46056C12.7833 6.01654 12.4234 5.65658 11.9794 5.65658H11.5774C10.2453 5.65658 9.16547 6.73644 9.16547 8.0685V9.67645H7.55753C7.11351 9.67645 6.75355 10.0364 6.75355 10.4804C6.75355 10.9245 7.11351 11.2844 7.55753 11.2844H9.16547V16.0585C5.99275 15.6628 3.53766 12.9563 3.53766 9.67645ZM9.96945 17.7162C14.4096 17.7162 18.0092 14.1166 18.0092 9.67645C18.0092 5.23623 14.4096 1.63672 9.96945 1.63672C5.52922 1.63672 1.92972 5.23623 1.92972 9.67645C1.92972 14.1166 5.52922 17.7162 9.96945 17.7162Z" fill="white"/>
</svg>
