<svg width="21" height="20" viewBox="0 0 21 20" fill="none" xmlns="http://www.w3.org/2000/svg">
<path fill-rule="evenodd" clip-rule="evenodd" d="M13.8434 2.44092C16.0635 2.44092 17.8632 4.24068 17.8632 6.46078V12.8926C17.8632 15.1127 16.0635 16.9124 13.8434 16.9124H7.41159C5.19148 16.9124 3.39172 15.1127 3.39172 12.8926V6.46078C3.39172 4.24068 5.19148 2.44092 7.41159 2.44092H13.8434ZM13.8434 4.04886L7.41159 4.04886C6.07953 4.04886 4.99967 5.12872 4.99967 6.46078L4.99967 12.8926C4.99967 14.2247 6.07953 15.3045 7.41159 15.3045H13.8434C15.1755 15.3045 16.2553 14.2247 16.2553 12.8926V6.46078C16.2553 5.12872 15.1755 4.04886 13.8434 4.04886ZM10.6275 6.46078C12.4035 6.46078 13.8434 7.90058 13.8434 9.67667C13.8434 11.4527 12.4035 12.8926 10.6275 12.8926C8.85139 12.8926 7.41159 11.4527 7.41159 9.67667C7.41159 7.90058 8.85139 6.46078 10.6275 6.46078ZM10.6275 8.06873C9.73941 8.06873 9.01953 8.7886 9.01953 9.67667C9.01953 10.5647 9.73941 11.2846 10.6275 11.2846C11.5155 11.2846 12.2354 10.5647 12.2354 9.67667C12.2354 8.7886 11.5155 8.06873 10.6275 8.06873ZM14.2454 5.25482C14.6894 5.25482 15.0493 5.61478 15.0493 6.0588C15.0493 6.50281 14.6894 6.86277 14.2454 6.86277C13.8013 6.86277 13.4414 6.50281 13.4414 6.0588C13.4414 5.61478 13.8013 5.25482 14.2454 5.25482Z" fill="white"/>
</svg>
