<svg width="20" height="20" viewBox="0 0 20 20" fill="none" xmlns="http://www.w3.org/2000/svg">
<path fill-rule="evenodd" clip-rule="evenodd" d="M14.9606 5.64809C14.6768 5.23947 13.918 4.66599 12.6885 4.91293C11.9717 5.05692 11.5428 5.4123 11.2702 5.87984C10.9799 6.37785 10.8396 7.05563 10.8396 7.84466C10.8396 8.28867 10.4796 8.6486 10.0356 8.6486C8.13332 8.6486 6.32285 8.08373 4.7993 6.55491C4.7005 7.10488 4.63156 7.75836 4.66425 8.43595C4.70638 9.30907 4.91516 10.1851 5.40954 10.9352C5.89548 11.6725 6.69588 12.3479 8.03325 12.7719C8.29991 12.8564 8.50347 13.0734 8.57072 13.3449C8.63797 13.6164 8.55924 13.9034 8.36285 14.1027C7.88773 14.5846 7.40988 14.946 6.9189 15.2322C7.77173 15.3204 8.5932 15.3268 9.35502 15.2579C10.8983 15.1183 12.1278 14.6766 12.8968 14.0527C14.5148 12.7396 15.3814 10.783 15.2198 7.50467C15.1932 6.96519 15.7128 6.38436 15.9637 5.94328C15.5851 6.01407 15.2056 6.00082 14.9606 5.64809ZM4.32943 4.03596C4.62622 4.00137 4.91771 4.13421 5.0863 4.38089C6.27246 6.11652 7.69717 6.83853 9.278 7.0028C9.35559 6.32651 9.53809 5.65828 9.88114 5.06997C10.3844 4.20678 11.2028 3.57129 12.3719 3.33647C13.9874 3.01198 15.2175 3.59703 15.9313 4.31354L17.3718 4.04424C17.6796 3.98673 17.9927 4.11303 18.1744 4.36796C18.356 4.62288 18.3732 4.96007 18.2183 5.23214L16.8359 7.66181C16.962 11.1683 15.9876 13.6153 13.91 15.3012C12.8079 16.1955 11.2309 16.7027 9.4999 16.8593C7.75534 17.0172 5.78333 16.8263 3.82298 16.2539C3.47906 16.1534 3.24309 15.8376 3.24436 15.4793C3.24563 15.121 3.48381 14.8068 3.82843 14.7088C4.81428 14.4284 5.56463 14.186 6.2429 13.7628C5.27937 13.2512 4.56942 12.5824 4.06694 11.82C3.36855 10.7603 3.10959 9.57896 3.05817 8.51346C3.00677 7.44806 3.16073 6.4613 3.32288 5.74912C3.41518 5.3437 3.523 4.9364 3.6716 4.54732C3.77954 4.2669 4.03265 4.07057 4.32943 4.03596Z" fill="white"/>
</svg>
