<svg width="16" height="11" viewBox="0 0 16 11" fill="none" xmlns="http://www.w3.org/2000/svg">
<path d="M1 0.75C0.585786 0.75 0.25 1.08579 0.25 1.5C0.25 1.91421 0.585786 2.25 1 2.25V0.75ZM15 2.25C15.4142 2.25 15.75 1.91421 15.75 1.5C15.75 1.08579 15.4142 0.75 15 0.75V2.25ZM1 4.75C0.585786 4.75 0.25 5.08579 0.25 5.5C0.25 5.91421 0.585786 6.25 1 6.25V4.75ZM13 6.25C13.4142 6.25 13.75 5.91421 13.75 5.5C13.75 5.08579 13.4142 4.75 13 4.75V6.25ZM1 8.75C0.585786 8.75 0.25 9.08579 0.25 9.5C0.25 9.91421 0.585786 10.25 1 10.25V8.75ZM8 10.25C8.41421 10.25 8.75 9.91421 8.75 9.5C8.75 9.08579 8.41421 8.75 8 8.75V10.25ZM1 2.25H15V0.75H1V2.25ZM1 6.25H13V4.75H1V6.25ZM1 10.25H8V8.75H1V10.25Z" fill="#361BCA"/>
</svg>
