<svg width="32.000000" height="32.000000" viewBox="0 0 32 32" fill="none" xmlns="http://www.w3.org/2000/svg" xmlns:xlink="http://www.w3.org/1999/xlink">
	<desc>
			Created with Pixso.
	</desc>
	<defs>
		<filter id="filter_34_1803_dd" x="0.000000" y="0.000000" width="32.000000" height="32.000000" filterUnits="userSpaceOnUse" color-interpolation-filters="sRGB">
			<feFlood flood-opacity="0" result="BackgroundImageFix"/>
			<feColorMatrix in="SourceAlpha" type="matrix" values="0 0 0 0 0 0 0 0 0 0 0 0 0 0 0 0 0 0 127 0" result="hardAlpha"/>
			<feOffset dx="0" dy="4"/>
			<feGaussianBlur stdDeviation="1.33333"/>
			<feComposite in2="hardAlpha" operator="out" k2="-1" k3="1"/>
			<feColorMatrix type="matrix" values="0 0 0 0 0 0 0 0 0 0 0 0 0 0 0 0 0 0 0.25 0"/>
			<feBlend mode="normal" in2="BackgroundImageFix" result="effect_dropShadow_1"/>
			<feBlend mode="normal" in="SourceGraphic" in2="effect_dropShadow_1" result="shape"/>
		</filter>
	</defs>
	<g filter="url(#filter_34_1803_dd)">
		<rect id="vuesax/bold/arrow-circle-left" rx="-0.500000" width="23.000000" height="23.000000" transform="translate(4.500000 0.500000)" fill="#FFFFFF" fill-opacity="0"/>
		<path id="Vector" d="M16 2C10.49 2 6 6.49 6 12C6 17.5 10.49 22 16 22C21.5 22 26 17.5 26 12C26 6.49 21.5 2 16 2ZM17.79 15C18.08 15.29 18.08 15.76 17.79 16.05C17.64 16.2 17.45 16.28 17.25 16.28C17.06 16.28 16.87 16.2 16.73 16.05L13.2 12.53C12.91 12.24 12.91 11.75 13.2 11.46L16.73 7.94C17.02 7.65 17.5 7.65 17.79 7.94C18.08 8.23 18.08 8.7 17.79 9L14.79 12L17.79 15Z" fill="#FFFFFF" fill-opacity="1.000000" fill-rule="nonzero"/>
		<g opacity="0.000000">
			<path id="Vector" d="M28 24L4 24L4 0L28 0L28 24Z" fill="#FFFFFF" fill-opacity="1.000000" fill-rule="evenodd"/>
		</g>
	</g>
</svg>
