<svg width="20" height="20" viewBox="0 0 23.6445 23.6445" fill="none" xmlns="http://www.w3.org/2000/svg" xmlns:xlink="http://www.w3.org/1999/xlink">
	<desc>
			Created with Pixso.
	</desc>
	<defs>
		<clipPath id="clip34_1838">
			<rect id="Social Icons" rx="-0.179125" width="14.688272" height="14.688272" transform="translate(4.477953 4.477953)" fill="white" fill-opacity="0"/>
		</clipPath>
	</defs>
	<rect id="Social Icons" rx="-0.179125" width="14.688272" height="14.688272" transform="translate(4.477953 4.477953)" fill="#FFFFFF" fill-opacity="0"/>
	<g clip-path="url(#clip34_1838)">
		<path id="Vector" d="M19.34 11.82C19.34 7.66 15.97 4.29 11.82 4.29C7.66 4.29 4.29 7.66 4.29 11.82C4.29 15.57 7.04 18.68 10.64 19.25L10.64 13.99L8.73 13.99L8.73 11.82L10.64 11.82L10.64 10.16C10.64 8.27 11.76 7.23 13.48 7.23C14.31 7.23 15.17 7.38 15.17 7.38L15.17 9.23L14.22 9.23C13.28 9.23 12.99 9.81 12.99 10.41L12.99 11.82L15.08 11.82L14.75 13.99L12.99 13.99L12.99 19.25C16.59 18.68 19.34 15.57 19.34 11.82Z" fill="#FFFFFF" fill-opacity="1.000000" fill-rule="nonzero"/>
	</g>
	<circle id="Ellipse 4" cx="11.822266" cy="11.822266" r="11.464019" stroke="#FFFFFF" stroke-opacity="1.000000" stroke-width="0.716501"/>
</svg>
