<svg width="32.000000" height="32.000000" viewBox="0 0 32 32" fill="none" xmlns="http://www.w3.org/2000/svg" xmlns:xlink="http://www.w3.org/1999/xlink">
	<desc>
			Created with Pixso.
	</desc>
	<defs>
		<filter id="filter_34_1808_dd" x="0.000000" y="0.000000" width="32.000000" height="32.000000" filterUnits="userSpaceOnUse" color-interpolation-filters="sRGB">
			<feFlood flood-opacity="0" result="BackgroundImageFix"/>
			<feColorMatrix in="SourceAlpha" type="matrix" values="0 0 0 0 0 0 0 0 0 0 0 0 0 0 0 0 0 0 127 0" result="hardAlpha"/>
			<feOffset dx="0" dy="4"/>
			<feGaussianBlur stdDeviation="1.33333"/>
			<feComposite in2="hardAlpha" operator="out" k2="-1" k3="1"/>
			<feColorMatrix type="matrix" values="0 0 0 0 0 0 0 0 0 0 0 0 0 0 0 0 0 0 0.25 0"/>
			<feBlend mode="normal" in2="BackgroundImageFix" result="effect_dropShadow_1"/>
			<feBlend mode="normal" in="SourceGraphic" in2="effect_dropShadow_1" result="shape"/>
		</filter>
	</defs>
	<g filter="url(#filter_34_1808_dd)">
		<rect id="vuesax/bold/arrow-circle-left" rx="-0.500000" width="23.000000" height="23.000000" transform="matrix(-1 0 0 1 28.5 0.5)" fill="#FFFFFF" fill-opacity="0"/>
		<path id="Vector" d="M16 2C21.5 2 26 6.49 26 12C26 17.5 21.5 22 16 22C10.49 22 6 17.5 6 12C6 6.49 10.49 2 16 2ZM14.21 15C13.91 15.29 13.91 15.76 14.21 16.05C14.35 16.2 14.54 16.28 14.74 16.28C14.93 16.28 15.12 16.2 15.27 16.05L18.79 12.53C19.08 12.24 19.08 11.75 18.79 11.46L15.27 7.94C14.98 7.65 14.5 7.65 14.21 7.94C13.91 8.23 13.91 8.7 14.21 9L17.2 12L14.21 15Z" fill="#FFFFFF" fill-opacity="1.000000" fill-rule="nonzero"/>
		<g opacity="0.000000">
			<path id="Vector" d="M4 24L28 24L28 0L4 0L4 24Z" fill="#FFFFFF" fill-opacity="1.000000" fill-rule="evenodd"/>
		</g>
	</g>
</svg>
