<svg width="20" height="20" viewBox="0 0 23.6445 23.6445" fill="none" xmlns="http://www.w3.org/2000/svg" xmlns:xlink="http://www.w3.org/1999/xlink">
	<desc>
			Created with Pixso.
	</desc>
	<defs>
		<clipPath id="clip34_1844">
			<rect id="Social Icons" rx="-0.179125" width="12.948200" height="12.948200" transform="translate(5.058032 5.058032)" fill="white" fill-opacity="0"/>
		</clipPath>
	</defs>
	<rect id="Social Icons" rx="-0.179125" width="12.948200" height="12.948200" transform="translate(5.058032 5.058032)" fill="#FFFFFF" fill-opacity="0"/>
	<g clip-path="url(#clip34_1844)">
		<path id="Vector" d="M11.53 6.07C13.3 6.07 13.52 6.08 14.21 6.11C14.86 6.14 15.21 6.25 15.45 6.34C15.76 6.46 15.98 6.6 16.21 6.84C16.45 7.07 16.59 7.29 16.71 7.6C16.8 7.83 16.91 8.19 16.94 8.83C16.97 9.54 16.98 9.75 16.98 11.52C16.98 13.3 16.97 13.51 16.94 14.21C16.91 14.86 16.8 15.21 16.71 15.44C16.59 15.75 16.44 15.98 16.21 16.21C15.98 16.44 15.76 16.58 15.45 16.7C15.21 16.79 14.86 16.9 14.21 16.93C13.51 16.96 13.3 16.97 11.53 16.97C9.75 16.97 9.54 16.96 8.84 16.93C8.19 16.9 7.84 16.79 7.61 16.7C7.3 16.58 7.07 16.44 6.84 16.21C6.61 15.97 6.46 15.75 6.34 15.44C6.25 15.21 6.14 14.86 6.12 14.21C6.08 13.51 6.08 13.3 6.08 11.52C6.08 9.74 6.08 9.53 6.12 8.83C6.14 8.18 6.25 7.83 6.34 7.6C6.46 7.29 6.61 7.07 6.84 6.84C7.08 6.6 7.3 6.46 7.61 6.34C7.84 6.25 8.19 6.14 8.84 6.11C9.54 6.08 9.75 6.07 11.53 6.07ZM11.53 4.87C9.72 4.87 9.5 4.88 8.79 4.91C8.08 4.94 7.59 5.06 7.17 5.22C6.73 5.39 6.36 5.62 5.99 5.99C5.62 6.36 5.39 6.73 5.22 7.17C5.06 7.59 4.94 8.08 4.91 8.78C4.88 9.5 4.87 9.72 4.87 11.53C4.87 13.33 4.88 13.56 4.91 14.27C4.94 14.98 5.06 15.46 5.22 15.88C5.39 16.32 5.62 16.69 5.99 17.06C6.36 17.43 6.73 17.66 7.17 17.83C7.59 17.99 8.08 18.11 8.78 18.14C9.49 18.17 9.72 18.18 11.52 18.18C13.33 18.18 13.56 18.17 14.27 18.14C14.97 18.11 15.46 17.99 15.88 17.83C16.32 17.66 16.69 17.43 17.06 17.06C17.43 16.69 17.66 16.32 17.82 15.89C17.99 15.46 18.1 14.98 18.13 14.27C18.16 13.56 18.17 13.34 18.17 11.53C18.17 9.72 18.16 9.5 18.13 8.79C18.1 8.08 17.99 7.59 17.82 7.17C17.66 6.73 17.43 6.36 17.06 5.99C16.69 5.62 16.32 5.39 15.89 5.22C15.46 5.06 14.98 4.95 14.27 4.92C13.56 4.88 13.33 4.87 11.53 4.87Z" fill="#FFFFFF" fill-opacity="1.000000" fill-rule="nonzero"/>
		<path id="Vector" d="M11.53 8.11C9.64 8.11 8.11 9.64 8.11 11.53C8.11 13.41 9.64 14.95 11.53 14.95C13.41 14.95 14.95 13.41 14.95 11.53C14.95 9.64 13.41 8.11 11.53 8.11ZM11.53 13.75C10.3 13.75 9.31 12.75 9.31 11.53C9.31 10.3 10.3 9.31 11.53 9.31C12.75 9.31 13.75 10.3 13.75 11.53C13.75 12.75 12.75 13.75 11.53 13.75Z" fill="#FFFFFF" fill-opacity="1.000000" fill-rule="nonzero"/>
		<path id="Vector" d="M15.88 7.97C15.88 8.42 15.52 8.77 15.08 8.77C14.64 8.77 14.28 8.41 14.28 7.97C14.28 7.53 14.64 7.18 15.08 7.18C15.52 7.18 15.88 7.54 15.88 7.97Z" fill="#FFFFFF" fill-opacity="1.000000" fill-rule="nonzero"/>
	</g>
	<circle id="Ellipse 5" cx="11.822266" cy="11.822266" r="11.464019" stroke="#FFFFFF" stroke-opacity="1.000000" stroke-width="0.716501"/>
</svg>
