<svg width="20" height="20" viewBox="0 0 23.6445 23.6445" fill="none" xmlns="http://www.w3.org/2000/svg" xmlns:xlink="http://www.w3.org/1999/xlink">
	<desc>
			Created with Pixso.
	</desc>
	<defs>
		<clipPath id="clip34_1835">
			<rect id="Social Icons" rx="-0.179125" width="12.538769" height="12.538769" transform="translate(5.553149 5.552172)" fill="white" fill-opacity="0"/>
		</clipPath>
	</defs>
	<rect id="Social Icons" rx="-0.179125" width="12.538769" height="12.538769" transform="translate(5.553149 5.552172)" fill="#FFFFFF" fill-opacity="0"/>
	<g clip-path="url(#clip34_1835)">
		<path id="Vector" d="M17.31 5.37L6.32 5.37C5.79 5.37 5.37 5.78 5.37 6.3L5.37 17.33C5.37 17.85 5.79 18.27 6.32 18.27L17.31 18.27C17.84 18.27 18.27 17.85 18.27 17.34L18.27 6.3C18.27 5.78 17.84 5.37 17.31 5.37ZM9.2 16.36L7.28 16.36L7.28 10.2L9.2 10.2L9.2 16.36ZM8.24 9.36C7.62 9.36 7.13 8.87 7.13 8.25C7.13 7.64 7.62 7.15 8.24 7.15C8.85 7.15 9.35 7.64 9.35 8.25C9.35 8.86 8.85 9.36 8.24 9.36ZM16.36 16.36L14.45 16.36L14.45 13.37C14.45 12.65 14.43 11.73 13.45 11.73C12.46 11.73 12.31 12.51 12.31 13.32L12.31 16.36L10.4 16.36L10.4 10.2L12.23 10.2L12.23 11.04L12.26 11.04C12.51 10.56 13.13 10.05 14.06 10.05C16 10.05 16.36 11.32 16.36 12.98L16.36 16.36Z" fill="#FFFFFF" fill-opacity="1.000000" fill-rule="nonzero"/>
	</g>
	<circle id="Ellipse 6" cx="11.822266" cy="11.822266" r="11.464019" stroke="#FFFFFF" stroke-opacity="1.000000" stroke-width="0.716501"/>
</svg>
