<svg width="182" height="40" viewBox="0 0 182 40" fill="none" xmlns="http://www.w3.org/2000/svg">
<g clip-path="url(#clip0_34_1972)">
<path d="M67.256 24.9594C67.256 25.671 67.0952 26.3278 66.7737 26.9846C66.4521 27.5867 65.9698 28.134 65.3267 28.5719C64.6837 29.0098 64.0406 29.2835 63.2903 29.5024C62.4864 29.7213 61.629 29.8308 60.8251 29.8308H51.2324V11.0569H61.8969C62.54 11.0569 63.1831 11.2211 63.7726 11.4948C64.3085 11.7684 64.7908 12.1516 65.2196 12.5894C65.5947 13.0273 65.9162 13.5747 66.1306 14.122C66.3985 14.8336 66.5057 15.5998 66.4521 16.3114C66.3985 17.0777 66.1306 17.7892 65.7555 18.446C65.2731 19.2671 64.5229 19.8691 63.6118 20.2523C64.6836 20.5259 65.6483 21.128 66.2914 21.949C66.9345 22.7153 67.256 23.7553 67.256 24.9594ZM55.0909 14.1767V18.8839H60.2356C60.5572 18.8839 60.8787 18.8292 61.1467 18.7197C61.4146 18.6102 61.6826 18.446 61.8969 18.2271C62.1113 18.0082 62.3257 17.7345 62.4328 17.4061C62.54 17.1324 62.5936 16.804 62.5936 16.4756C62.6472 15.8735 62.3793 15.2167 61.9505 14.7788C61.7362 14.5599 61.5218 14.3957 61.2539 14.2862C60.9859 14.1767 60.7179 14.122 60.3964 14.122L55.0909 14.1767ZM63.3439 24.3026C63.3439 23.9742 63.2903 23.6458 63.1831 23.3174C63.0759 23.0437 62.9152 22.7701 62.7008 22.4964C62.4864 22.2774 62.2721 22.1132 62.0041 21.949C61.7362 21.8396 61.4146 21.7301 61.0931 21.7301H55.1445V26.6562H60.8787C61.2003 26.6562 61.5754 26.6015 61.8969 26.492C62.2185 26.3825 62.4864 26.2183 62.7008 25.9994C62.9152 25.7804 63.1295 25.5068 63.2367 25.2331C63.2903 24.9594 63.3439 24.631 63.3439 24.3026Z" fill="white"/>
<path d="M69.7212 29.7761V11.0569H73.5797V29.7761H69.7212Z" fill="white"/>
<path d="M92.6044 14.2315H86.2807V29.7761H82.4222V14.2315H76.0449V11.0569H92.6044V14.2315Z" fill="white"/>
<path d="M111.361 29.7761V17.4061L106.216 26.6562H104.126L98.9816 17.4061V29.8308H95.123V11.0569H99.2495L105.144 21.7301L111.093 11.0569H115.22V29.8308H111.361V29.7761Z" fill="white"/>
<path d="M127.653 29.8852C126.313 29.8852 125.027 29.6115 123.848 29.0642C122.722 28.5168 121.704 27.8053 120.847 26.9295C119.989 26.0538 119.346 25.0138 118.917 23.8644C118.489 22.715 118.221 21.5656 118.221 20.3614C118.221 17.8983 119.185 15.5448 120.9 13.7385C121.758 12.8628 122.776 12.1512 123.901 11.6586C125.08 11.1113 126.366 10.8923 127.706 10.8923C129.046 10.8923 130.332 11.166 131.511 11.7134C132.637 12.2607 133.655 12.9722 134.459 13.9027C135.262 14.8332 135.959 15.8184 136.388 16.9679C136.817 18.0625 137.085 19.2667 137.085 20.4709C137.085 21.675 136.87 22.9339 136.388 24.0286C135.906 25.1233 135.262 26.1632 134.405 27.039C133.548 27.9147 132.529 28.6263 131.404 29.1189C130.225 29.6663 128.939 29.8852 127.653 29.8852ZM122.133 20.3614C122.133 21.1824 122.24 21.9487 122.508 22.715C122.722 23.4265 123.097 24.1381 123.633 24.7402C124.116 25.3422 124.705 25.7801 125.402 26.1632C126.152 26.5464 126.956 26.7106 127.76 26.7106C128.564 26.7106 129.421 26.5464 130.118 26.1632C130.814 25.7801 131.404 25.2875 131.833 24.7402C132.315 24.1381 132.69 23.4265 132.905 22.715C133.172 21.9487 133.28 21.1824 133.28 20.4161C133.28 19.5951 133.172 18.8288 132.905 18.0625C132.637 17.351 132.261 16.6395 131.779 16.0374C131.297 15.49 130.707 14.9974 130.064 14.669C129.368 14.3406 128.564 14.1217 127.76 14.1764C126.956 14.1764 126.099 14.3406 125.402 14.7237C124.705 15.1069 124.116 15.5448 123.687 16.1468C123.205 16.7489 122.829 17.4057 122.615 18.172C122.24 18.8288 122.133 19.5951 122.133 20.3614Z" fill="white"/>
<path d="M156.109 29.7761V11.0569H159.968V29.7761H156.109Z" fill="white"/>
<path d="M167.953 17.7892V29.8308H164.094V11.0569H167.095L177.492 23.3721V11.0569H181.35V29.7761H178.189L167.953 17.7892Z" fill="white"/>
<path d="M150.214 11.0569L145.659 23.1532L141.104 11.0569H137.138L144.587 29.0098C144.694 29.2287 144.855 29.3929 145.016 29.5571C145.177 29.7213 145.445 29.7761 145.713 29.7761C145.981 29.7761 146.195 29.7213 146.409 29.5571C146.624 29.4477 146.784 29.2287 146.838 29.0098L154.18 11.1116L150.214 11.0569Z" fill="white"/>
<path d="M13.5586 0.000244141V9.08616L27.2242 18.8836C27.3314 18.9931 27.4385 19.1026 27.5457 19.212C27.5993 19.3762 27.6529 19.4857 27.6529 19.6499C27.6529 19.8141 27.5993 19.9783 27.5457 20.0878C27.4921 20.252 27.385 20.3615 27.2242 20.4162L13.5586 30.3231V39.409L39.6572 20.6899C39.818 20.5804 39.9251 20.4162 40.0323 20.252C40.1395 20.0878 40.1395 19.8688 40.1395 19.7046C40.1395 19.4857 40.0859 19.3215 40.0323 19.1573C39.9251 18.9931 39.818 18.8289 39.6572 18.7194L13.5586 0.000244141Z" fill="white"/>
<path d="M5.89502 6.62329V13.5746L13.3441 18.8838C13.4513 18.9933 13.5585 19.1027 13.6656 19.2122C13.7192 19.3764 13.7728 19.4859 13.7728 19.6501C13.7728 19.8143 13.7192 19.9785 13.6656 20.088C13.6121 20.2522 13.5049 20.3616 13.3441 20.4164L5.89502 25.8898V32.8411L22.776 20.7448C22.9368 20.6353 23.044 20.4711 23.1512 20.3069C23.2584 20.1427 23.2584 19.9238 23.2584 19.7596C23.2584 19.5406 23.2048 19.3764 23.1512 19.2122C23.044 19.048 22.9368 18.8838 22.776 18.7743L5.89502 6.62329Z" fill="white"/>
<path d="M0 12.3154V16.6942L3.00107 18.8288C3.10825 18.9383 3.21543 19.0478 3.32261 19.1572C3.3762 19.3214 3.42979 19.4309 3.42979 19.5951C3.42979 19.7593 3.3762 19.9235 3.32261 20.033C3.21543 20.2519 3.10825 20.3614 3.00107 20.4709L0 22.6055V26.9843L8.84244 20.6351C9.00321 20.5256 9.11039 20.3614 9.21757 20.1972C9.32475 20.033 9.32475 19.814 9.32475 19.6498C9.32475 19.4309 9.27116 19.2667 9.21757 19.1025C9.11039 18.9383 9.00321 18.7741 8.84244 18.6646L0 12.3154Z" fill="white"/>
</g>
<defs>
<clipPath id="clip0_34_1972">
<rect width="181.35" height="39.4088" fill="white"/>
</clipPath>
</defs>
</svg>
