<svg width="24" height="23" viewBox="0 0 24 23" fill="none" xmlns="http://www.w3.org/2000/svg">
<circle cx="11.6954" cy="11.6005" r="11.3536" fill="#1F2024"/>
<path d="M17.8868 11.6009C17.8868 8.18061 15.1141 5.40796 11.6939 5.40796C8.27363 5.40796 5.50098 8.18061 5.50098 11.6009C5.50098 14.6919 7.76562 17.2539 10.7262 17.7185V13.391H9.15382V11.6009H10.7262V10.2365C10.7262 8.68439 11.6508 7.82706 13.0654 7.82706C13.7427 7.82706 14.4517 7.94802 14.4517 7.94802V9.47205H13.6708C12.9015 9.47205 12.6615 9.94946 12.6615 10.4397V11.6009H14.3791L14.1045 13.391H12.6615V17.7185C15.6221 17.2539 17.8868 14.6919 17.8868 11.6009Z" fill="white"/>
</svg>
