<svg width="25" height="25" viewBox="0 0 25 25" fill="none" xmlns="http://www.w3.org/2000/svg">
<circle cx="12.2152" cy="12.2152" r="12.2152" fill="white"/>
<g clip-path="url(#clip0_34_2173)">
<path d="M18.2152 12.1076C18.2152 8.73446 15.4807 6 12.1076 6C8.73446 6 6 8.73446 6 12.1076C6 15.156 8.23345 17.6828 11.1533 18.141V13.8731H9.60253V12.1076H11.1533V10.762C11.1533 9.2313 12.0651 8.38578 13.4602 8.38578C14.1282 8.38578 14.8274 8.50507 14.8274 8.50507V10.0081H14.0573C13.2986 10.0081 13.0619 10.4789 13.0619 10.9624V12.1076H14.7558L14.485 13.8731H13.0619V18.141C15.9818 17.6828 18.2152 15.156 18.2152 12.1076Z" fill="black"/>
</g>
<defs>
<clipPath id="clip0_34_2173">
<rect width="12.2152" height="12.2152" fill="white" transform="translate(6 6)"/>
</clipPath>
</defs>
</svg>
