<svg width="138" height="53" viewBox="0 0 138 53" fill="none" xmlns="http://www.w3.org/2000/svg">
<g clip-path="url(#clip0_34_1945)">
<path d="M30.4021 14.1295C31.8007 12.6199 34.0777 12.6199 35.4763 14.1295C36.8749 15.6391 36.8749 18.0968 35.4763 19.6064C34.6661 20.4808 33.5575 20.8767 32.4318 20.7018C32.3806 20.6926 32.3209 20.6926 32.2697 20.7018C31.9372 20.6557 31.5875 20.7018 31.2549 20.8675C30.7859 21.0976 30.4533 21.521 30.2913 22.0088C30.1293 22.4876 30.1378 23.0306 30.351 23.5184C31.5534 26.326 30.9991 29.6857 28.9694 31.8765C26.9398 34.0673 23.8271 34.6656 21.2261 33.3677C20.757 33.1376 20.2539 33.1284 19.8019 33.3125C19.3584 33.4874 18.9832 33.8464 18.77 34.3434C18.6336 34.6656 18.5824 34.997 18.5995 35.3284C18.5909 35.3928 18.5909 35.4572 18.5995 35.5216C18.7871 36.7551 18.4118 38.0162 17.5932 38.8999C16.1946 40.4095 13.9176 40.4095 12.519 38.8999C11.8368 38.1635 11.4701 37.1969 11.4701 36.1568C11.4701 35.1259 11.8453 34.1501 12.519 33.4138C13.3292 32.5393 14.4378 32.1435 15.5635 32.3184C15.5805 32.3184 15.5976 32.3184 15.6232 32.3184C15.7426 32.346 15.862 32.3644 15.9899 32.3644C16.2543 32.3644 16.5187 32.3091 16.7659 32.1803C17.2265 31.9502 17.5505 31.5452 17.7211 31.0757C17.8916 30.5878 17.8916 30.0356 17.6699 29.5292C16.4675 26.7218 17.0218 23.362 19.0514 21.1712C21.0811 18.9804 24.1938 18.3821 26.7948 19.6801C27.2553 19.9102 27.767 19.9194 28.2104 19.7445C28.6539 19.5696 29.0376 19.2106 29.2509 18.7135C29.4129 18.3269 29.4556 17.9127 29.3958 17.5168V17.5076C29.2082 16.2742 29.5835 15.0132 30.4021 14.1295ZM26.8545 29.5937C28.4066 27.9184 28.4066 25.203 26.8545 23.5276C25.3024 21.8524 22.7867 21.8524 21.2346 23.5276C19.6825 25.203 19.6825 27.9184 21.2346 29.5937C22.7867 31.269 25.3024 31.269 26.8545 29.5937ZM24.0147 0.644287C37.2757 0.644287 48.0294 12.2517 48.0294 26.5653C48.0294 40.8789 37.2842 52.4955 24.0147 52.4955C10.7452 52.4955 0 40.8882 0 26.5653C0 12.2425 10.7537 0.644287 24.0147 0.644287ZM36.8152 21.0516C38.9386 18.7595 38.9386 15.05 36.8152 12.7579C34.6917 10.466 31.2549 10.466 29.1315 12.7579C28.3469 13.6048 27.8523 14.6541 27.6476 15.7495C23.8015 14.1847 19.3841 15.1789 16.4419 18.3545C13.4997 21.5302 12.5787 26.2983 14.037 30.459C13.0137 30.6799 12.0414 31.2138 11.2484 32.0698C9.12491 34.3619 9.12491 38.0714 11.2484 40.3634C13.3718 42.6555 16.8086 42.6555 18.932 40.3634C19.7251 39.5074 20.2283 38.4396 20.4244 37.335C21.6184 37.8137 22.8634 38.053 24.1 38.053C26.8545 38.053 29.575 36.9024 31.596 34.7209C34.5211 31.5636 35.4507 26.823 34.0265 22.6717C35.0413 22.4415 36.0221 21.9076 36.8152 21.0516Z" fill="white"/>
<path d="M68.3568 37.4768H64.7208V27.2844C64.7208 26.2683 64.5269 25.5062 64.1391 24.9982C63.7706 24.4691 63.1306 24.2044 62.2192 24.2044C61.2108 24.2044 60.4351 24.6807 59.8921 25.6333C59.3685 26.5647 59.1067 27.6125 59.1067 28.7767V37.4768H55.4707V14.5518H59.1067V22.7121C59.5334 22.0347 60.1248 21.5055 60.8811 21.1244C61.6374 20.7435 62.4229 20.5529 63.2373 20.5529C64.8274 20.5529 66.0782 21.1033 66.9897 22.2041C67.9008 23.3048 68.3568 24.7231 68.3568 26.4588V37.4768Z" fill="white"/>
<path d="M84.1458 29.3481C84.1269 29.8562 84.1167 30.2266 84.1167 30.4595H73.994C73.9555 31.8142 74.3241 32.8938 75.0994 33.6981C75.7589 34.3755 76.5058 34.7142 77.3392 34.7142C78.3282 34.7142 79.0655 34.4496 79.5499 33.9204C79.8989 33.5394 80.1418 33.0737 80.2771 32.5233H83.7677C83.6709 33.5605 83.2441 34.5766 82.4878 35.5716C81.2857 37.1168 79.5891 37.8895 77.3973 37.8895C75.5167 37.8895 73.9264 37.212 72.6269 35.8573C71.0757 34.2274 70.2998 32.0259 70.2998 29.2529C70.2998 26.4798 71.027 24.2784 72.4814 22.6484C73.7228 21.2513 75.3321 20.5527 77.3101 20.5527C79.7535 20.5527 81.5962 21.5688 82.8368 23.601C83.7677 25.1462 84.204 27.062 84.1458 29.3481ZM80.5098 27.57C80.4908 26.3634 80.1803 25.4002 79.579 24.6805C79.0364 24.0455 78.27 23.728 77.281 23.728C76.1756 23.728 75.3321 24.1514 74.7503 24.9981C74.2463 25.6966 73.9845 26.5539 73.9649 27.57H80.5098Z" fill="white"/>
<path d="M91.8739 37.4453C91.1954 37.5935 90.6617 37.6675 90.2741 37.6675C88.9746 37.6675 87.9565 37.3077 87.2198 36.588C86.5021 35.8683 86.1436 34.7463 86.1436 33.2223V14.5203H89.8087V32.5554C89.8087 33.0847 89.9054 33.4869 90.0996 33.762C90.2937 34.016 90.6813 34.143 91.2631 34.143C91.3794 34.143 91.4958 34.143 91.6121 34.143C91.7285 34.1219 91.8158 34.1113 91.8739 34.1113V37.4453Z" fill="white"/>
<path d="M97.5394 18.6798H93.6416V14.5837H97.5394V18.6798ZM97.4522 37.477H93.758V20.966H97.4522V37.477Z" fill="white"/>
<path d="M113.338 37.4771H110.313L110.051 35.318C109.683 36.1224 109.11 36.7574 108.335 37.2231C107.559 37.6676 106.686 37.8899 105.716 37.8899C104.107 37.8899 102.827 37.3501 101.877 36.2706C100.946 35.191 100.48 33.7621 100.48 31.984V20.9661H104.116V31.0949C104.116 33.1906 104.989 34.2384 106.734 34.2384C107.472 34.2384 108.092 33.9633 108.597 33.4128C109.333 32.672 109.702 31.4337 109.702 29.6979V20.9661H113.338V37.4771Z" fill="white"/>
<path d="M138 37.4766H134.393V27.2207C134.393 26.1411 134.218 25.3368 133.869 24.8075C133.54 24.2784 132.938 24.0138 132.066 24.0138C131.115 24.0138 130.378 24.4689 129.855 25.3791C129.351 26.2681 129.099 27.2948 129.099 28.459V37.4766H125.492V27.2207C125.492 26.1411 125.317 25.3368 124.968 24.8075C124.639 24.2784 124.037 24.0138 123.165 24.0138C122.214 24.0138 121.477 24.4689 120.954 25.3791C120.43 26.2681 120.168 27.2948 120.168 28.459V37.4766H116.562V20.9656H119.587L119.878 23.1565C120.847 21.4206 122.282 20.5527 124.183 20.5527C126.257 20.5527 127.702 21.4524 128.517 23.2517C129.467 21.4524 130.989 20.5527 133.084 20.5527C134.654 20.5527 135.867 21.082 136.72 22.1404C137.573 23.1776 138 24.5747 138 26.3317V37.4766Z" fill="white"/>
</g>
<defs>
<clipPath id="clip0_34_1945">
<rect width="138" height="52.5815" fill="white"/>
</clipPath>
</defs>
</svg>
