<svg width="26" height="25" viewBox="0 0 26 25" fill="none" xmlns="http://www.w3.org/2000/svg">
<circle cx="13.0765" cy="12.2152" r="12.2152" fill="white"/>
<g clip-path="url(#clip0_34_2179)">
<path d="M13.3582 7.98986C14.8269 7.98986 15.0008 7.9963 15.5784 8.02207C16.1152 8.04569 16.4051 8.13587 16.5983 8.21102C16.8538 8.30979 17.0385 8.43004 17.2296 8.62114C17.4228 8.81439 17.5409 8.9969 17.6397 9.25242C17.7148 9.44566 17.805 9.73768 17.8286 10.2723C17.8544 10.8521 17.8609 11.026 17.8609 12.4925C17.8609 13.9612 17.8544 14.1352 17.8286 14.7128C17.805 15.2496 17.7148 15.5394 17.6397 15.7327C17.5409 15.9882 17.4207 16.1729 17.2296 16.364C17.0363 16.5572 16.8538 16.6753 16.5983 16.7741C16.4051 16.8492 16.113 16.9394 15.5784 16.963C14.9986 16.9888 14.8247 16.9952 13.3582 16.9952C11.8895 16.9952 11.7156 16.9888 11.138 16.963C10.6012 16.9394 10.3113 16.8492 10.118 16.7741C9.86252 16.6753 9.67786 16.5551 9.48676 16.364C9.29351 16.1707 9.17542 15.9882 9.07665 15.7327C9.00149 15.5394 8.91131 15.2474 8.88769 14.7128C8.86193 14.133 8.85548 13.9591 8.85548 12.4925C8.85548 11.0239 8.86193 10.8499 8.88769 10.2723C8.91131 9.73554 9.00149 9.44566 9.07665 9.25242C9.17542 8.9969 9.29566 8.81224 9.48676 8.62114C9.68001 8.42789 9.86252 8.30979 10.118 8.21102C10.3113 8.13587 10.6033 8.04569 11.138 8.02207C11.7156 7.9963 11.8895 7.98986 13.3582 7.98986ZM13.3582 7C11.8659 7 11.6791 7.00644 11.0929 7.03221C10.5088 7.05797 10.1073 7.15245 9.75946 7.28773C9.39658 7.42944 9.08953 7.61625 8.78463 7.9233C8.47758 8.2282 8.29077 8.53525 8.14905 8.89598C8.01378 9.24597 7.9193 9.64535 7.89354 10.2294C7.86777 10.8177 7.86133 11.0045 7.86133 12.4968C7.86133 13.9891 7.86777 14.176 7.89354 14.7621C7.9193 15.3462 8.01378 15.7477 8.14905 16.0956C8.29077 16.4584 8.47758 16.7655 8.78463 17.0704C9.08953 17.3753 9.39658 17.5642 9.75731 17.7038C10.1073 17.8391 10.5067 17.9336 11.0907 17.9593C11.6769 17.9851 11.8637 17.9915 13.356 17.9915C14.8483 17.9915 15.0351 17.9851 15.6213 17.9593C16.2054 17.9336 16.6069 17.8391 16.9547 17.7038C17.3155 17.5642 17.6225 17.3753 17.9274 17.0704C18.2323 16.7655 18.4213 16.4584 18.5608 16.0977C18.6961 15.7477 18.7906 15.3483 18.8164 14.7643C18.8421 14.1781 18.8486 13.9913 18.8486 12.499C18.8486 11.0067 18.8421 10.8199 18.8164 10.2337C18.7906 9.64965 18.6961 9.24812 18.5608 8.90027C18.4256 8.53525 18.2388 8.2282 17.9317 7.9233C17.6268 7.61839 17.3198 7.42944 16.959 7.28987C16.609 7.1546 16.2097 7.06012 15.6256 7.03436C15.0373 7.00644 14.8505 7 13.3582 7Z" fill="black"/>
<path d="M13.3578 9.67328C11.7989 9.67328 10.5342 10.938 10.5342 12.4969C10.5342 14.0557 11.7989 15.3204 13.3578 15.3204C14.9166 15.3204 16.1813 14.0557 16.1813 12.4969C16.1813 10.938 14.9166 9.67328 13.3578 9.67328ZM13.3578 14.3284C12.3464 14.3284 11.5262 13.5082 11.5262 12.4969C11.5262 11.4855 12.3464 10.6653 13.3578 10.6653C14.3691 10.6653 15.1893 11.4855 15.1893 12.4969C15.1893 13.5082 14.3691 14.3284 13.3578 14.3284Z" fill="black"/>
<path d="M16.9522 9.5616C16.9522 9.92662 16.6559 10.2208 16.293 10.2208C15.928 10.2208 15.6338 9.92447 15.6338 9.5616C15.6338 9.19657 15.9301 8.9024 16.293 8.9024C16.6559 8.9024 16.9522 9.19872 16.9522 9.5616Z" fill="black"/>
</g>
<defs>
<clipPath id="clip0_34_2179">
<rect width="10.9937" height="10.9937" fill="white" transform="translate(7.86133 7)"/>
</clipPath>
</defs>
</svg>
