<svg width="23" height="23" viewBox="0 0 23 23" fill="none" xmlns="http://www.w3.org/2000/svg">
<circle cx="11.421" cy="11.6005" r="11.3536" fill="#1F2024"/>
<g clip-path="url(#clip0_34_2001)">
<path d="M11.3181 6.40863C12.973 6.40863 13.169 6.41588 13.8199 6.44492C14.4248 6.47153 14.7514 6.57315 14.9692 6.65784C15.2571 6.76914 15.4652 6.90463 15.6805 7.11997C15.8983 7.33773 16.0314 7.54339 16.1427 7.83132C16.2273 8.04908 16.329 8.37814 16.3556 8.98061C16.3846 9.63388 16.3919 9.82987 16.3919 11.4824C16.3919 13.1374 16.3846 13.3334 16.3556 13.9842C16.329 14.5891 16.2273 14.9158 16.1427 15.1335C16.0314 15.4214 15.8959 15.6295 15.6805 15.8449C15.4628 16.0626 15.2571 16.1957 14.9692 16.307C14.7514 16.3917 14.4224 16.4933 13.8199 16.5199C13.1666 16.549 12.9706 16.5562 11.3181 16.5562C9.6631 16.5562 9.46711 16.549 8.81626 16.5199C8.21137 16.4933 7.88473 16.3917 7.66697 16.307C7.37904 16.1957 7.17096 16.0602 6.95562 15.8449C6.73786 15.6271 6.60479 15.4214 6.49349 15.1335C6.4088 14.9158 6.30718 14.5867 6.28057 13.9842C6.25153 13.331 6.24427 13.135 6.24427 11.4824C6.24427 9.82745 6.25153 9.63146 6.28057 8.98061C6.30718 8.37572 6.4088 8.04908 6.49349 7.83132C6.60479 7.54339 6.74028 7.33531 6.95562 7.11997C7.17338 6.90221 7.37904 6.76914 7.66697 6.65784C7.88473 6.57315 8.21379 6.47153 8.81626 6.44492C9.46711 6.41588 9.6631 6.40863 11.3181 6.40863ZM11.3181 5.29321C9.63648 5.29321 9.42598 5.30047 8.76545 5.32951C8.10733 5.35854 7.65487 5.465 7.26291 5.61743C6.854 5.77712 6.50801 5.98762 6.16443 6.33362C5.81843 6.6772 5.60793 7.02319 5.44824 7.42968C5.29581 7.82406 5.18935 8.2741 5.16032 8.93221C5.13128 9.59517 5.12402 9.80567 5.12402 11.4873C5.12402 13.1688 5.13128 13.3793 5.16032 14.0399C5.18935 14.698 5.29581 15.1505 5.44824 15.5424C5.60793 15.9513 5.81843 16.2973 6.16443 16.6409C6.50801 16.9845 6.854 17.1974 7.26049 17.3547C7.65487 17.5071 8.10491 17.6136 8.76303 17.6426C9.42356 17.6716 9.63406 17.6789 11.3156 17.6789C12.9972 17.6789 13.2077 17.6716 13.8683 17.6426C14.5264 17.6136 14.9788 17.5071 15.3708 17.3547C15.7773 17.1974 16.1233 16.9845 16.4669 16.6409C16.8104 16.2973 17.0234 15.9513 17.1806 15.5448C17.3331 15.1505 17.4395 14.7004 17.4686 14.0423C17.4976 13.3818 17.5049 13.1713 17.5049 11.4897C17.5049 9.80809 17.4976 9.59759 17.4686 8.93705C17.4395 8.27894 17.3331 7.82648 17.1806 7.43451C17.0282 7.02319 16.8177 6.6772 16.4717 6.33362C16.1281 5.99004 15.7821 5.77712 15.3757 5.61985C14.9813 5.46742 14.5312 5.36096 13.8731 5.33193C13.2102 5.30047 12.9997 5.29321 11.3181 5.29321Z" fill="white"/>
<path d="M11.3184 8.30554C9.56183 8.30554 8.13672 9.73066 8.13672 11.4872C8.13672 13.2438 9.56183 14.669 11.3184 14.669C13.075 14.669 14.5001 13.2438 14.5001 11.4872C14.5001 9.73066 13.075 8.30554 11.3184 8.30554ZM11.3184 13.5511C10.1788 13.5511 9.25455 12.6269 9.25455 11.4872C9.25455 10.3476 10.1788 9.42337 11.3184 9.42337C12.458 9.42337 13.3823 10.3476 13.3823 11.4872C13.3823 12.6269 12.458 13.5511 11.3184 13.5511Z" fill="white"/>
<path d="M15.3684 8.17969C15.3684 8.59102 15.0345 8.92249 14.6256 8.92249C14.2143 8.92249 13.8828 8.5886 13.8828 8.17969C13.8828 7.76837 14.2167 7.43689 14.6256 7.43689C15.0345 7.43689 15.3684 7.77079 15.3684 8.17969Z" fill="white"/>
</g>
<defs>
<clipPath id="clip0_34_2001">
<rect width="12.3881" height="12.3881" fill="white" transform="translate(5.12402 5.29321)"/>
</clipPath>
</defs>
</svg>
