<svg width="25" height="25" viewBox="0 0 25 25" fill="none" xmlns="http://www.w3.org/2000/svg">
<circle cx="12.5062" cy="12.2152" r="12.2152" fill="white"/>
<g clip-path="url(#clip0_34_2182)">
<path d="M16.9054 7H8.05757C7.63373 7 7.29102 7.33461 7.29102 7.7483V16.6326C7.29102 17.0463 7.63373 17.3829 8.05757 17.3829H16.9054C17.3292 17.3829 17.6739 17.0463 17.6739 16.6346V7.7483C17.6739 7.33461 17.3292 7 16.9054 7ZM10.3714 15.8478H8.8302V10.8916H10.3714V15.8478ZM9.60081 10.2163C9.106 10.2163 8.7065 9.81677 8.7065 9.32399C8.7065 8.83121 9.106 8.43171 9.60081 8.43171C10.0936 8.43171 10.4931 8.83121 10.4931 9.32399C10.4931 9.81474 10.0936 10.2163 9.60081 10.2163ZM16.1388 15.8478H14.5996V13.4386C14.5996 12.8647 14.5895 12.1245 13.7986 12.1245C12.9976 12.1245 12.8759 12.7512 12.8759 13.3981V15.8478H11.3387V10.8916H12.8151V11.5689H12.8353C13.0402 11.1795 13.5431 10.7679 14.2914 10.7679C15.8508 10.7679 16.1388 11.794 16.1388 13.1284V15.8478Z" fill="black"/>
</g>
<defs>
<clipPath id="clip0_34_2182">
<rect width="10.3829" height="10.3829" fill="white" transform="translate(7.29102 7)"/>
</clipPath>
</defs>
</svg>
