<svg width="163" height="41" viewBox="0 0 163 41" fill="none" xmlns="http://www.w3.org/2000/svg">
<g clip-path="url(#clip0_34_1938)">
<path fill-rule="evenodd" clip-rule="evenodd" d="M18.0221 0.629883C20.1204 0.629883 21.7697 1.71967 23.0954 2.59437C23.5928 2.92315 24.0642 3.23452 24.4509 3.41376C24.8749 3.60837 25.429 3.7702 26.0165 3.94125C27.4929 4.37143 29.33 4.90403 30.7645 6.50184C32.199 8.09658 32.6797 10.1389 33.0664 11.7828C33.2198 12.4353 33.3648 13.0518 33.5406 13.524C33.7014 13.9532 33.9803 14.4766 34.2778 15.0317C35.0634 16.5046 36.0424 18.339 36.0424 20.6732C36.0424 23.0085 35.0634 24.8419 34.2769 26.3168C33.9803 26.8699 33.7005 27.3943 33.5406 27.8244C33.3648 28.2956 33.2198 28.9122 33.0664 29.5667C32.6797 31.2075 32.199 33.2509 30.7645 34.8466C29.33 36.4424 27.4938 36.976 26.0128 37.4072C25.4271 37.5772 24.873 37.7391 24.4509 37.9337C24.066 38.1109 23.5956 38.4222 23.0954 38.7531C21.7706 39.6278 20.1223 40.7165 18.0221 40.7165C15.921 40.7165 14.2727 39.6278 12.9469 38.752C12.4495 38.4233 11.9791 38.1119 11.5914 37.9337C11.1684 37.7391 10.6152 37.5772 10.0249 37.4062C8.54946 36.976 6.71239 36.4424 5.27787 34.8456C3.84335 33.2498 3.3627 31.2065 2.97688 29.5656C2.82348 28.9132 2.67845 28.2956 2.50274 27.8244C2.3419 27.3943 2.06206 26.8719 1.76549 26.3168C0.978967 24.8419 0 23.0085 0 20.6732C0 18.3379 0.978967 16.5046 1.76735 15.0276C2.06299 14.4745 2.3419 13.9522 2.50181 13.523C2.67845 13.0518 2.82348 12.4342 2.97595 11.7818C3.3627 10.1399 3.84335 8.09658 5.27787 6.50082C6.71239 4.90608 8.55039 4.3704 10.0277 3.94022C10.6134 3.7702 11.1684 3.60837 11.5914 3.41274C11.9791 3.23452 12.4495 2.92315 12.9488 2.59335C14.2717 1.7207 15.921 0.630907 18.0212 0.630907L18.0221 0.629883ZM13.7009 37.3417C14.9318 38.1549 16.3263 39.0757 18.0221 39.0757C19.716 39.0757 21.1115 38.1539 22.3415 37.3417C22.8872 36.9811 23.4022 36.6411 23.8848 36.4178C24.4035 36.1792 25.005 36.004 25.6419 35.8186C27.015 35.4192 28.5704 34.9675 29.7214 33.6862C30.8723 32.4048 31.2795 30.6749 31.6393 29.1498C31.8048 28.441 31.9629 27.7712 32.1776 27.1956C32.3775 26.6568 32.6843 26.0843 33.0078 25.4779C33.7386 24.1095 34.5669 22.5588 34.5669 20.6732C34.5669 18.7886 33.7395 17.2379 33.0078 15.8685C32.6843 15.2632 32.3775 14.6906 32.1776 14.1519C31.9629 13.5752 31.8057 12.9064 31.6384 12.1966C31.2795 10.6715 30.8723 8.94158 29.7214 7.66128C28.5695 6.38098 27.015 5.92827 25.6428 5.52882C25.005 5.34445 24.4035 5.16828 23.8857 4.92861C23.4022 4.70533 22.8872 4.36528 22.3424 4.00577C21.1106 3.19253 19.716 2.27174 18.0221 2.27174C16.3263 2.27174 14.9318 3.19253 13.7018 4.00577C13.1561 4.36631 12.642 4.70533 12.1576 4.92861C11.6398 5.16828 11.0373 5.34343 10.4005 5.52882C9.02825 5.92827 7.47381 6.38098 6.32192 7.66128C5.17003 8.94158 4.76375 10.6725 4.40396 12.1966C4.23661 12.9064 4.0795 13.5752 3.86474 14.1529C3.66485 14.6896 3.35805 15.2632 3.03452 15.8685C2.30378 17.2379 1.47542 18.7886 1.47542 20.6732C1.47542 22.5578 2.30285 24.1095 3.03452 25.4789C3.35805 26.0843 3.66485 26.6568 3.86474 27.1956C4.0795 27.7712 4.23661 28.441 4.40396 29.1498C4.76282 30.6759 5.17003 32.4048 6.32192 33.6862C7.47381 34.9665 9.02825 35.4192 10.3996 35.8186C11.0373 36.004 11.6398 36.1792 12.1567 36.4178C12.641 36.6411 13.1561 36.9811 13.7009 37.3417ZM19.5924 10.8262L20.0888 10.8231C21.4043 10.8231 22.7236 10.9132 23.9991 11.2615C24.6452 11.4376 25.2914 11.6886 25.8083 12.1556C26.0593 12.383 26.2852 12.6821 26.3261 13.0396C26.3661 13.398 26.1532 13.8047 25.8315 13.8385C25.7191 13.8426 25.6067 13.8271 25.4987 13.7924C25.3249 13.7483 25.1566 13.7043 25.0162 13.8088C24.8396 13.9419 24.8377 14.2307 24.8879 14.4612C25.1854 15.8071 26.54 16.5885 26.9128 17.9119C26.963 18.086 26.9871 18.2949 26.8839 18.4352C26.7984 18.551 26.6543 18.5838 26.5214 18.6083C25.9022 18.7251 25.2793 18.8419 24.6527 18.8132C24.0251 18.7866 23.3864 18.6001 22.8937 18.1679C22.1751 17.539 21.8683 16.4964 21.2946 15.7057C20.6745 14.8504 19.7616 14.3219 18.7975 14.0505C18.6075 13.9968 18.4155 13.9524 18.222 13.9173C17.0552 13.7125 15.8643 13.8149 14.6836 13.8907C13.5029 13.9665 12.3036 14.0126 11.1563 13.6961C10.9137 13.6285 10.6664 13.5404 10.4795 13.355C9.706 12.5858 10.9713 12.0512 11.4994 11.9088C14.1462 11.197 16.8702 10.8671 19.5924 10.8262ZM14.4902 16.9224C15.6838 16.6622 16.8995 16.5444 18.116 16.5711C18.618 16.5824 19.148 16.6295 19.557 16.9532C20.0312 17.3301 20.2348 17.9918 20.4096 18.6104C20.4421 18.7231 20.4746 18.8398 20.4811 18.9566C20.4854 19.0178 20.4807 19.0793 20.4672 19.1389C20.4282 19.3059 20.3138 19.4359 20.1995 19.5496C19.3004 20.4489 18.1095 20.9375 16.9083 21.0706C15.7053 21.2038 14.4893 20.9989 13.3244 20.6425C12.986 20.538 12.6308 20.4069 12.4021 20.1099C11.954 19.5261 12.1492 18.4404 12.5648 17.8996C13.0297 17.2932 13.819 17.0699 14.4893 16.9224H14.4902ZM21.118 20.9979C21.4155 20.8371 21.7195 20.7531 22.0291 20.7531C22.2355 20.7531 22.4456 20.79 22.6576 20.8688C23.0694 21.0194 23.4794 21.1761 23.8875 21.339C24.3728 21.5325 24.6657 21.8931 24.6778 22.4923C24.6843 22.8384 24.6936 23.1857 24.7057 23.5308C24.7298 24.1218 24.4723 24.5346 24.027 24.8111C23.59 25.0805 23.1447 25.3335 22.7031 25.5926C22.4075 25.7667 22.0923 25.8815 21.7567 25.8794C21.5169 25.8806 21.2778 25.8524 21.0436 25.7954C20.5112 25.6582 19.9829 25.5024 19.4594 25.3284C19.2309 25.249 19.0137 25.1345 18.8142 24.9883C18.618 24.847 18.5353 24.6124 18.552 24.3451C18.5641 24.1454 18.5725 23.9457 18.5818 23.7357C18.5818 23.5482 18.5883 23.3485 18.5818 23.1488C18.5725 22.8702 18.6469 22.6182 18.8272 22.4359C19.0139 22.2382 19.2222 22.0668 19.4473 21.9259C19.9968 21.5991 20.5574 21.3011 21.118 20.9979ZM25.3853 25.8282C25.548 25.7309 25.7107 25.6776 25.8724 25.6776C26.0584 25.6776 26.2425 25.7493 26.421 25.904C26.6283 26.0853 26.8412 26.2604 27.055 26.4315C27.4176 26.7183 27.5124 27.128 27.4622 27.5858C27.4014 28.1218 27.3294 28.6563 27.2465 29.1887C27.1722 29.6804 26.949 30.0685 26.5511 30.3174C26.1532 30.5674 25.7525 30.8152 25.3518 31.06C25.138 31.1911 24.9083 31.2649 24.6508 31.3007C24.4788 31.2372 24.2966 31.1952 24.1358 31.1061C23.7555 30.8972 23.3874 30.6626 23.0108 30.4434C22.639 30.2253 22.4958 29.8862 22.6036 29.4356C22.7273 28.9194 22.8528 28.4031 22.9848 27.889C23.0982 27.4404 23.3604 27.1105 23.71 26.8791C24.2612 26.515 24.8198 26.1646 25.3853 25.8282ZM27.7867 20.4407C27.7959 20.4394 27.8052 20.4387 27.8146 20.4387C27.8982 20.4387 27.9754 20.494 28.0423 20.5513C28.7331 21.1485 28.9758 22.1778 29.1106 23.1396C29.1524 23.4489 29.1887 23.7644 29.1729 24.0747C29.1673 24.1771 29.157 24.2796 29.1385 24.382C29.0632 24.7906 28.8503 25.1881 28.5091 25.3642C28.4461 25.4013 28.3748 25.4177 28.3036 25.4113C28.2326 25.3947 28.1663 25.3596 28.1102 25.3089C27.7802 25.0529 27.465 24.7579 27.2521 24.3789C26.6376 23.283 26.6943 21.3922 27.6147 20.5431C27.6624 20.4922 27.7219 20.4568 27.7867 20.4407ZM64.4045 11.1314C64.028 11.1447 63.6682 11.2338 63.3651 11.4796C63.1095 11.6845 62.9263 11.9784 62.7478 12.2673L57.2375 21.1556L52.1967 13.0478C51.8276 12.4537 51.4446 11.8443 50.8998 11.453C50.5686 11.2097 50.1775 11.0842 49.7795 11.0935C49.5183 11.1037 49.0423 11.1836 48.9893 11.5339C48.9521 11.7849 48.9846 12.0717 48.9837 12.3267L48.9828 13.1666C48.9809 13.7258 48.9809 14.2861 48.98 14.8463C48.9746 19.3243 48.9783 23.8023 48.9911 28.2802L48.993 28.7504L52.0628 28.7463L52.0963 18.9218L56.1832 25.4052C56.4566 25.8395 56.8387 26.327 57.3082 26.2348C57.5731 26.1816 57.7758 25.9521 57.9543 25.7278C59.5841 23.666 60.6374 21.088 62.3573 19.1205L62.4038 28.7329H65.4941C65.4941 22.903 65.4932 17.074 65.4913 11.2441C65.1381 11.1795 64.7643 11.1201 64.4045 11.1314ZM96.1415 20.9559C96.3228 19.3642 97.5453 18.2621 99.0979 18.2703C100.582 18.2785 101.72 19.3724 101.865 20.9559H96.1415ZM102.02 16.2444C99.8082 14.9446 96.6863 15.3144 94.9292 17.158C92.9099 19.2751 92.5064 21.9177 93.3301 24.7374C94.1556 27.5643 96.1294 28.8774 98.7297 29.0699C100.773 29.2215 102.647 28.6459 104.399 27.3082C103.99 26.4991 103.611 25.7493 103.237 25.0068C99.4419 27.0214 96.4855 26.3936 96.1508 23.5237H104.715C104.779 23.2615 104.845 23.074 104.868 22.8804C105.204 20.0966 104.063 17.4438 102.02 16.2444Z" fill="white"/>
<path fill-rule="evenodd" clip-rule="evenodd" d="M114.766 15.7915C114.488 15.7863 114.195 15.7853 113.954 15.94C113.617 16.1551 113.476 16.6037 113.359 17.0154C112.667 19.4461 111.92 21.8576 111.12 24.2476C110.206 21.6697 109.281 19.0968 108.344 16.5289C108.265 16.3159 108.179 16.0885 108.006 15.9625C107.839 15.8406 107.626 15.8365 107.427 15.8365L105.931 15.8355H105.182C105.062 15.8335 104.942 15.8304 104.822 15.8335C104.683 15.8376 104.653 15.8355 104.692 15.9861C104.757 16.2462 104.897 16.5064 104.995 16.7543L105.299 17.5224L105.908 19.0588L108.339 25.2032L109.312 27.6603C109.461 28.0332 109.609 28.4183 109.612 28.8259C109.615 29.2305 109.467 29.6228 109.262 29.9567C108.509 31.1807 106.886 31.619 105.712 30.9164L105.205 33.6716C106.413 34.4162 107.933 34.5863 109.195 33.9574C110.124 33.4913 110.861 32.633 111.405 31.6733C111.948 30.7116 112.316 29.6453 112.681 28.5842L117.068 15.8458L116.24 15.8232C115.749 15.8109 115.257 15.8007 114.766 15.7915ZM73.1915 26.0277C71.36 26.0543 69.9273 24.3766 69.9478 22.2309C69.9682 20.1926 71.3906 18.5989 73.1859 18.604C74.9569 18.6081 76.4026 20.25 76.4082 22.2647C76.4147 24.3469 74.9988 26.0031 73.1915 26.0277ZM73.184 15.4781C69.5768 15.4862 66.9216 18.3623 66.916 22.2688C66.9104 26.2326 69.5712 29.1465 73.1933 29.1475C76.7764 29.1475 79.4502 26.1793 79.4353 22.2175C79.4204 18.392 76.7113 15.4709 73.184 15.4781ZM140.884 26.0277C139.068 25.997 137.688 24.3582 137.702 22.2462C137.717 20.208 139.133 18.6081 140.926 18.604C142.729 18.5999 144.187 20.2797 144.162 22.3333C144.138 24.4115 142.677 26.0595 140.884 26.0277ZM140.981 15.4781C137.374 15.4606 134.691 18.3285 134.672 22.2216C134.654 26.1988 137.289 29.1281 140.906 29.1475C144.502 29.166 147.166 26.2479 147.19 22.2647C147.215 18.4545 144.507 15.4955 140.981 15.4781ZM88.8661 15.7464C86.9751 15.1165 85.2291 15.4443 83.8801 17.2397C83.8411 17.291 83.7593 17.3032 83.6682 17.3493L83.6105 15.8888H80.7322V28.7665H83.7351V27.8068C83.7416 25.7071 83.7147 23.6074 83.7658 21.5098C83.8086 19.7563 84.8954 18.5815 86.3615 18.5774C87.8555 18.5733 88.7899 19.6221 88.828 21.4709C88.8726 23.5972 88.8475 25.7256 88.8531 27.8539V28.7624H91.8588C91.8588 25.8229 91.9517 22.9304 91.8281 20.0492C91.7379 17.9608 90.7311 16.3681 88.8661 15.7474M156.741 15.7771C154.924 15.0305 153.004 15.5661 151.709 17.1291C151.638 17.2131 151.544 17.2725 151.425 17.3749L151.36 15.8693H148.511V28.7542H151.49V27.689C151.5 25.5617 151.459 23.4313 151.536 21.307C151.595 19.6436 152.754 18.5416 154.223 18.5784C155.605 18.6132 156.495 19.6477 156.585 21.3336C156.603 21.6727 156.606 22.0137 156.607 22.3548C156.609 24.1984 156.607 26.0421 156.608 27.8857V28.7512H159.63C159.63 25.8812 159.702 23.0728 159.607 20.2705C159.536 18.1523 158.606 16.5422 156.741 15.7771ZM121.216 11.2459H118.118V28.7604H129.24V25.3845H121.216V11.2459ZM130.466 28.7665H133.413V15.8816H130.466V28.7665ZM131.955 10.2483C130.872 10.2555 130.053 11.1803 130.088 12.3531C130.121 13.5084 130.93 14.3616 131.978 14.3452C133.035 14.3299 133.791 13.4695 133.79 12.2824C133.79 11.1117 133.003 10.2411 131.955 10.2483ZM160.344 14.1599C159.393 14.1599 158.699 13.3302 158.699 12.2875C158.699 11.2582 159.393 10.4152 160.331 10.4152C161.27 10.4152 161.95 11.2582 161.95 12.3019C161.95 13.3312 161.269 14.1599 160.344 14.1599ZM160.331 9.94409C159.123 9.94409 158.159 10.9868 158.159 12.2875C158.159 13.617 159.123 14.6607 160.331 14.6607C160.615 14.6653 160.897 14.607 161.161 14.4894C161.424 14.3718 161.663 14.1973 161.865 13.9761C162.066 13.7549 162.225 13.4915 162.332 13.2015C162.439 12.9115 162.493 12.6007 162.489 12.2875C162.489 10.9868 161.552 9.94409 160.331 9.94409Z" fill="white"/>
<path fill-rule="evenodd" clip-rule="evenodd" d="M160.24 12.1883H160.008V11.5164C160.06 11.501 160.15 11.4877 160.279 11.4877C160.587 11.4877 160.729 11.6311 160.729 11.8452C160.729 12.0879 160.51 12.1883 160.24 12.1883ZM160.818 12.3593V12.3306C161.075 12.2446 161.255 12.0439 161.255 11.7878C161.257 11.6905 161.24 11.5937 161.205 11.5046C161.169 11.4155 161.116 11.3362 161.049 11.2726C160.895 11.1733 160.715 11.1016 160.317 11.1016C159.97 11.1016 159.7 11.1302 159.508 11.1733V13.5167H159.996V12.5744H160.227C160.497 12.5744 160.625 12.6871 160.664 12.9452C160.729 13.2166 160.767 13.4317 160.832 13.5167H161.358C161.307 13.4317 161.268 13.2883 161.204 12.9309C161.139 12.6164 161.024 12.4454 160.818 12.3593Z" fill="white"/>
</g>
<defs>
<clipPath id="clip0_34_1938">
<rect width="162.696" height="40.9695" fill="white"/>
</clipPath>
</defs>
</svg>
