<svg width="162" height="39" viewBox="0 0 162 39" fill="none" xmlns="http://www.w3.org/2000/svg">
<g clip-path="url(#clip0_34_1955)">
<path d="M3.11409 6.65585C3.22531 4.45757 5.00482 2.50354 7.1736 2.68673C7.84092 2.80886 8.50823 2.80886 9.62043 3.72481C14.6253 8.48775 17.5726 17.0366 16.7385 24.3032C16.6273 24.7306 16.3492 24.6085 16.1824 24.3032C14.8477 19.1128 10.2321 13.0675 6.0614 11.2967C4.05945 10.3807 2.94726 8.73201 3.11409 6.65585Z" fill="white"/>
<path d="M38.6485 6.228C38.6485 2.80845 36.0905 -0.122593 32.4758 -0.000465808C25.469 0.182724 15.9041 20.1504 21.4095 38.1641C21.5207 38.5916 21.7987 38.4695 21.7987 38.042C22.5217 25.463 29.5285 15.5096 35.59 11.8458C37.9812 10.3803 38.6485 8.60947 38.6485 6.228Z" fill="white"/>
<path d="M0.000124393 24.4251C0.166954 26.9287 2.00208 28.0889 3.89281 28.0889C7.95232 28.0889 12.9016 30.165 15.9045 32.8518C16.1826 33.1571 16.1826 32.9739 16.0157 32.4244C14.8479 27.8446 8.34159 20.1506 3.78159 20.1506C1.33476 20.2728 -0.111095 22.471 0.000124393 24.4251Z" fill="white"/>
<path d="M43.2642 24.4251C43.153 26.9287 41.2623 28.1499 39.3716 28.1499C35.312 28.1499 30.3628 30.2261 27.3598 32.9129C27.0818 33.2182 27.0818 33.035 27.2486 32.4854C28.4164 27.8446 34.9228 20.1506 39.4828 20.1506C42.0408 20.2728 43.3755 22.471 43.2642 24.4251Z" fill="white"/>
<path d="M53.1071 24.5474C54.0525 25.2802 55.9432 26.1961 57.8339 26.1961C59.4466 26.1961 60.67 25.2802 60.67 23.8146C60.67 20.273 52.3286 21.4332 52.3286 15.3879C52.3286 11.9683 54.9978 10.1975 58.2788 10.1975C60.5588 10.1975 61.7822 10.9303 63.3949 12.0905L62.0603 14.2888C60.5588 13.556 59.7803 13.1286 58.1676 13.1286C56.5549 13.1286 55.3315 13.8613 55.3315 15.3268C55.3315 18.8685 63.673 17.5251 63.673 23.7536C63.673 26.8678 61.393 29.0661 57.7227 29.0661C55.0534 29.0661 52.9959 27.9059 51.7725 26.8678L53.1071 24.5474Z" fill="white"/>
<path d="M75.1849 26.0124C77.7429 26.0124 79.9117 23.6309 79.9117 19.6618C79.9117 15.8148 78.021 13.3112 75.3517 13.3112C72.9049 13.3112 70.6249 15.2042 70.6249 19.845C70.4581 22.9592 72.2376 26.0124 75.1849 26.0124ZM67.5107 38.4693V10.6855H70.3468V12.7617C70.3468 13.3723 70.2356 13.6776 70.2356 13.6776H70.3468C70.3468 13.6776 71.8483 10.2581 75.8522 10.2581C80.301 10.2581 82.9703 14.105 82.9703 19.6007C82.9703 25.3407 79.8561 28.9434 75.5742 28.9434C71.9595 28.9434 70.4581 25.7071 70.4581 25.7071H70.3468C70.3468 25.7071 70.4581 26.3177 70.4581 27.3558V38.2861L67.5107 38.4693Z" fill="white"/>
<path d="M95.6484 13.9225C92.423 13.9225 89.6981 17.7695 89.6981 21.3111V28.883H86.584V10.6861H89.6981V13.9225C89.6981 14.6552 89.5869 15.2659 89.5869 15.2659H89.6981C90.2542 12.8844 93.2015 10.5029 95.6484 10.5029V13.9225Z" fill="white"/>
<path d="M101.988 10.686H98.874V28.6997H101.988V10.686Z" fill="white"/>
<path d="M118.171 28.6993V17.891C118.171 15.3874 117.782 13.3113 115.057 13.3113C111.943 13.3113 109.552 16.2423 109.552 19.9672V28.6993H106.438V10.6856H109.552V13.3723C109.552 13.983 109.44 14.4104 109.44 14.4104H109.552C110.219 12.7617 112.221 10.136 115.724 10.136C119.617 10.136 121.397 12.5175 121.397 16.914V28.455L118.171 28.6993Z" fill="white"/>
<path d="M136.633 28.6995L131.795 20.1507H129.349V28.6995H126.234V1.03784H129.349V17.3418H131.629L136.189 10.808H139.414L134.187 18.6241V18.7462L139.97 28.8217H136.578V28.6995H136.633Z" fill="white"/>
<path d="M148.756 28.6995C146.198 28.6995 143.251 28.2721 143.251 23.6923V1.03784H146.365V23.387C146.365 25.5853 147.978 25.5853 148.645 25.7685V28.6995H148.756Z" fill="white"/>
<path d="M161.657 13.7393C158.432 13.7393 155.707 17.5863 155.707 21.128V28.6998H152.593V10.6861H155.707V13.9225C155.707 14.6552 155.596 15.2659 155.596 15.2659H155.707C156.374 12.8844 159.322 10.5029 161.768 10.5029L161.657 13.7393Z" fill="white"/>
<path d="M102.377 4.76268C102.377 5.92288 101.543 6.83883 100.486 6.83883C99.4298 6.83883 98.5957 5.92288 98.5957 4.76268C98.5957 3.60247 99.4298 2.68652 100.486 2.68652C101.599 2.68652 102.377 3.54141 102.377 4.76268Z" fill="white"/>
</g>
<defs>
<clipPath id="clip0_34_1955">
<rect width="161.824" height="38.4699" fill="white"/>
</clipPath>
</defs>
</svg>
